<mxfile><diagram name="ER Diagram"><mxGraphModel><root><mxCell id="1" value="book" style="shape=swimlane;childLayout=stackLayout;html=1;rounded=1;" vertex="1" parent="1"><mxGeometry x="50" y="50" width="160" height="150" as_="geometry" /></mxCell><mxCell id="2" value="book_id" style="text" vertex="1" parent="1" /><mxCell id="3" value="title" style="text" vertex="1" parent="1" /><mxCell id="4" value="publisher_id" style="text" vertex="1" parent="1" /><mxCell id="5" value="language_id" style="text" vertex="1" parent="1" /><mxCell id="6" value="publication_year" style="text" vertex="1" parent="1" /><mxCell id="7" value="price" style="text" vertex="1" parent="1" /><mxCell id="8" value="author" style="shape=swimlane;childLayout=stackLayout;html=1;rounded=1;" vertex="1" parent="1"><mxGeometry x="250" y="50" width="160" height="90" as_="geometry" /></mxCell><mxCell id="9" value="author_id" style="text" vertex="1" parent="8" /><mxCell id="10" value="first_name" style="text" vertex="1" parent="8" /><mxCell id="11" value="last_name" style="text" vertex="1" parent="8" /><mxCell id="12" value="book_author" style="shape=swimlane;childLayout=stackLayout;html=1;rounded=1;" vertex="1" parent="1"><mxGeometry x="450" y="50" width="160" height="70" as_="geometry" /></mxCell><mxCell id="13" value="book_id" style="text" vertex="1" parent="12" /><mxCell id="14" value="author_id" style="text" vertex="1" parent="12" /><mxCell id="15" value="publisher" style="shape=swimlane;childLayout=stackLayout;html=1;rounded=1;" vertex="1" parent="1"><mxGeometry x="650" y="50" width="160" height="70" as_="geometry" /></mxCell><mxCell id="16" value="publisher_id" style="text" vertex="1" parent="15" /><mxCell id="17" value="name" style="text" vertex="1" parent="15" /><mxCell id="18" value="book_language" style="shape=swimlane;childLayout=stackLayout;html=1;rounded=1;" vertex="1" parent="1"><mxGeometry x="850" y="50" width="160" height="70" as_="geometry" /></mxCell><mxCell id="19" value="language_id" style="text" vertex="1" parent="18" /><mxCell id="20" value="language_name" style="text" vertex="1" parent="18" /><mxCell id="21" value="customer" style="shape=swimlane;childLayout=stackLayout;html=1;rounded=1;" vertex="1" parent="1"><mxGeometry x="50" y="250" width="160" height="110" as_="geometry" /></mxCell><mxCell id="22" value="customer_id" style="text" vertex="1" parent="21" /><mxCell id="23" value="first_name" style="text" vertex="1" parent="21" /><mxCell id="24" value="last_name" style="text" vertex="1" parent="21" /><mxCell id="25" value="email" style="text" vertex="1" parent="21" /><mxCell id="26" value="customer_address" style="shape=swimlane;childLayout=stackLayout;html=1;rounded=1;" vertex="1" parent="1"><mxGeometry x="250" y="250" width="160" height="90" as_="geometry" /></mxCell><mxCell id="27" value="customer_id" style="text" vertex="1" parent="26" /><mxCell id="28" value="address_id" style="text" vertex="1" parent="26" /><mxCell id="29" value="status_id" style="text" vertex="1" parent="26" /><mxCell id="30" value="address" style="shape=swimlane;childLayout=stackLayout;html=1;rounded=1;" vertex="1" parent="1"><mxGeometry x="450" y="250" width="160" height="130" as_="geometry" /></mxCell><mxCell id="31" value="address_id" style="text" vertex="1" parent="30" /><mxCell id="32" value="street" style="text" vertex="1" parent="30" /><mxCell id="33" value="city" style="text" vertex="1" parent="30" /><mxCell id="34" value="postal_code" style="text" vertex="1" parent="30" /><mxCell id="35" value="country_id" style="text" vertex="1" parent="30" /><mxCell id="36" value="address_status" style="shape=swimlane;childLayout=stackLayout;html=1;rounded=1;" vertex="1" parent="1"><mxGeometry x="650" y="250" width="160" height="70" as_="geometry" /></mxCell><mxCell id="37" value="status_id" style="text" vertex="1" parent="36" /><mxCell id="38" value="status_name" style="text" vertex="1" parent="36" /><mxCell id="39" value="country" style="shape=swimlane;childLayout=stackLayout;html=1;rounded=1;" vertex="1" parent="1"><mxGeometry x="850" y="250" width="160" height="70" as_="geometry" /></mxCell><mxCell id="40" value="country_id" style="text" vertex="1" parent="39" /><mxCell id="41" value="country_name" style="text" vertex="1" parent="39" /><mxCell id="42" value="cust_order" style="shape=swimlane;childLayout=stackLayout;html=1;rounded=1;" vertex="1" parent="1"><mxGeometry x="50" y="450" width="160" height="130" as_="geometry" /></mxCell><mxCell id="43" value="order_id" style="text" vertex="1" parent="42" /><mxCell id="44" value="customer_id" style="text" vertex="1" parent="42" /><mxCell id="45" value="order_date" style="text" vertex="1" parent="42" /><mxCell id="46" value="shipping_method_id" style="text" vertex="1" parent="42" /><mxCell id="47" value="current_status_id" style="text" vertex="1" parent="42" /><mxCell id="48" value="order_line" style="shape=swimlane;childLayout=stackLayout;html=1;rounded=1;" vertex="1" parent="1"><mxGeometry x="250" y="450" width="160" height="130" as_="geometry" /></mxCell><mxCell id="49" value="order_line_id" style="text" vertex="1" parent="48" /><mxCell id="50" value="order_id" style="text" vertex="1" parent="48" /><mxCell id="51" value="book_id" style="text" vertex="1" parent="48" /><mxCell id="52" value="quantity" style="text" vertex="1" parent="48" /><mxCell id="53" value="unit_price" style="text" vertex="1" parent="48" /><mxCell id="54" value="shipping_method" style="shape=swimlane;childLayout=stackLayout;html=1;rounded=1;" vertex="1" parent="1"><mxGeometry x="450" y="450" width="160" height="70" as_="geometry" /></mxCell><mxCell id="55" value="shipping_method_id" style="text" vertex="1" parent="54" /><mxCell id="56" value="method_name" style="text" vertex="1" parent="54" /><mxCell id="57" value="order_history" style="shape=swimlane;childLayout=stackLayout;html=1;rounded=1;" vertex="1" parent="1"><mxGeometry x="650" y="450" width="160" height="110" as_="geometry" /></mxCell><mxCell id="58" value="history_id" style="text" vertex="1" parent="57" /><mxCell id="59" value="order_id" style="text" vertex="1" parent="57" /><mxCell id="60" value="status_id" style="text" vertex="1" parent="57" /><mxCell id="61" value="change_date" style="text" vertex="1" parent="57" /><mxCell id="62" value="order_status" style="shape=swimlane;childLayout=stackLayout;html=1;rounded=1;" vertex="1" parent="1"><mxGeometry x="850" y="450" width="160" height="70" as_="geometry" /></mxCell><mxCell id="63" value="status_id" style="text" vertex="1" parent="62" /><mxCell id="64" value="status_name" style="text" vertex="1" parent="62" /></root></mxGraphModel></diagram></mxfile>